PathFileType  4	(X/Y/Z)
DataRate	CameraRate	NumFrames	NumMarkers	Units	OrigDataRate	OrigDataStartFrame	OrigNumFrames
	100.0 	100.0	8	50	mm	100.0	67	265
Frame#	Time	R.Shoulder			R.Clavicle			R.Bicep			R.Elbow			R.Forearm			R.Wrist			L.Shoulder			L.Clavicle			L.Scapula			L.Bicep			L.Elbow			L.Forearm			L.Wrist			R.ASIS			R.Iliac			S2			L.Iliac			L.ASIS			R.TH1			R.TH2			R.TH3			R.Knee			R.SH1			R.SH2			R.SH3			R.SH4			R.Ankle			R.Heel			R.MT5			L.TH1			L.TH2			L.TH3			L.TH4			L.Knee			L.SH1			L.SH2			L.SH3			L.Ankle			L.Heel			L.MT5			R.MKnee			L.MKnee			R.MAnkle			L.MAnkle			R.MElbow			L.MElbow			R.PSIS			L.PSIS			R_HJC			L_HJC			
		X1	Y1	Z1	X2	Y2	Z2	X3	Y3	Z3	X4	Y4	Z4	X5	Y5	Z5	X6	Y6	Z6	X7	Y7	Z7	X8	Y8	Z8	X9	Y9	Z9	X10	Y10	Z10	X11	Y11	Z11	X12	Y12	Z12	X13	Y13	Z13	X14	Y14	Z14	X15	Y15	Z15	X16	Y16	Z16	X17	Y17	Z17	X18	Y18	Z18	X19	Y19	Z19	X20	Y20	Z20	X21	Y21	Z21	X22	Y22	Z22	X23	Y23	Z23	X24	Y24	Z24	X25	Y25	Z25	X26	Y26	Z26	X27	Y27	Z27	X28	Y28	Z28	X29	Y29	Z29	X30	Y30	Z30	X31	Y31	Z31	X32	Y32	Z32	X33	Y33	Z33	X34	Y34	Z34	X35	Y35	Z35	X36	Y36	Z36	X37	Y37	Z37	X38	Y38	Z38	X39	Y39	Z39	X40	Y40	Z40	X41	Y41	Z41	X42	Y42	Z42	X43	Y43	Z43	X44	Y44	Z44	X45	Y45	Z45	X46	Y46	Z46	X47	Y47	Z47	X48	Y48	Z48	X49	Y49	Z49	X50	Y50	Z50	

67	0.66000	265.843	5.406	1423.079	329.540	165.069	1412.246	288.585	-8.099	1247.319	213.437	-50.990	1110.979	310.747	-44.260	993.937	314.834	-82.210	890.089	216.219	392.666	1429.376	333.485	230.471	1414.648	125.878	251.705	1313.405	259.855	398.388	1259.911	182.287	427.334	1121.799	264.786	440.410	1008.821	255.039	465.839	889.712	354.720	49.200	958.728	261.566	33.577	1045.336	174.427	201.472	991.202	280.722	356.873	1038.061	371.914	326.495	952.244	367.194	71.015	718.064	352.889	80.547	632.781	240.076	-13.013	640.642	221.317	18.217	496.698	275.924	48.970	361.008	268.257	51.954	287.101	175.125	-6.143	366.769	166.161	-1.750	292.879	209.222	34.288	99.944	144.800	95.370	54.331	332.988	4.684	35.657	370.883	347.576	745.798	365.732	337.176	661.746	228.019	396.975	750.378	224.809	384.353	662.636	233.857	360.125	501.714	264.275	353.735	378.129	264.262	354.184	302.678	149.864	363.977	300.968	211.705	349.970	94.997	149.559	283.864	42.265	324.248	386.823	35.383	216.449	168.168	500.364	235.954	211.162	501.790	246.821	129.594	116.347	242.400	256.498	109.704	230.058	55.562	1092.245	237.250	326.799	1099.834	175.706	149.356	1006.219	182.937	250.735	1003.705	273.631	88.604	871.281	283.435	298.136	866.855
68	0.67000	265.815	5.616	1423.101	329.496	165.139	1412.322	288.585	-8.099	1247.319	213.295	-50.783	1110.935	310.705	-44.111	993.887	314.970	-82.080	890.073	216.219	392.666	1429.376	333.485	230.471	1414.648	125.878	251.705	1313.405	259.978	398.426	1259.792	182.106	427.351	1121.866	264.590	440.415	1008.872	254.925	465.962	889.776	354.720	49.200	958.728	261.566	33.577	1045.336	174.513	201.268	991.051	280.722	356.873	1038.061	371.914	326.495	952.244	367.412	71.076	718.313	352.933	80.539	632.769	239.998	-12.922	640.509	221.290	18.387	496.710	275.911	48.960	360.959	268.379	51.877	287.178	175.350	-6.089	366.747	166.008	-1.709	292.772	209.222	34.288	99.944	144.881	95.344	54.492	333.039	4.879	35.610	370.883	347.576	745.798	365.732	337.176	661.746	227.945	396.960	750.275	224.809	384.353	662.636	233.885	360.024	501.791	264.279	353.791	378.129	264.084	354.118	302.629	149.720	363.907	301.066	211.705	349.970	94.997	149.559	283.864	42.265	324.144	386.794	35.269	216.449	168.168	500.364	235.954	211.162	501.790	246.821	129.594	116.347	242.400	256.498	109.704	230.111	55.642	1092.136	237.250	326.799	1099.834	175.706	149.356	1006.219	182.672	250.832	1003.740	273.656	88.588	871.272	283.423	298.121	866.842
69	0.68000	265.757	5.660	1423.155	329.496	165.139	1412.322	288.382	-7.906	1247.243	213.433	-50.961	1111.047	310.671	-43.899	993.775	314.884	-82.145	889.959	216.019	392.742	1429.392	333.342	230.534	1414.798	125.725	251.614	1313.478	259.978	398.426	1259.792	182.069	427.419	1121.748	264.379	440.554	1008.869	254.433	466.423	889.864	354.720	49.200	958.728	261.566	33.577	1045.336	174.427	201.472	991.202	280.722	356.873	1038.061	371.914	326.495	952.244	367.644	71.196	718.447	352.840	80.616	632.801	240.074	-12.923	640.592	221.317	18.217	496.698	275.911	48.960	360.959	268.257	51.954	287.101	175.070	-6.097	366.838	166.096	-1.735	292.658	209.027	34.290	100.030	144.881	95.344	54.492	333.035	4.714	35.725	370.883	347.576	745.798	365.732	337.176	661.746	227.879	397.101	750.287	224.563	384.580	662.726	233.765	360.050	501.768	264.222	353.798	378.083	264.357	354.263	302.734	149.728	363.879	301.118	211.705	349.970	94.997	149.447	283.929	42.290	324.144	386.794	35.269	216.234	168.167	500.310	236.105	211.079	501.930	246.821	129.594	116.347	242.488	256.529	109.826	230.319	55.528	1092.114	237.250	326.799	1099.834	175.706	149.356	1006.219	182.672	250.832	1003.740	273.596	88.620	871.285	283.388	298.153	866.860
70	0.69000	265.779	5.674	1423.219	329.494	165.355	1412.580	288.393	-7.763	1247.152	213.409	-50.771	1110.972	310.722	-43.592	993.852	314.970	-82.080	890.073	216.019	392.742	1429.392	333.376	230.545	1414.686	125.725	251.614	1313.478	259.978	398.426	1259.792	181.975	427.466	1121.714	264.379	440.554	1008.869	253.982	466.401	890.099	354.722	49.339	958.888	261.186	33.752	1045.431	174.513	201.268	991.051	280.151	356.952	1038.037	371.914	326.495	952.244	367.644	71.196	718.447	352.880	80.774	632.619	240.030	-12.967	640.697	221.290	18.387	496.710	275.929	48.959	360.853	268.257	51.954	287.101	175.070	-6.097	366.838	165.899	-1.621	292.922	209.167	34.382	100.077	144.881	95.344	54.492	333.153	4.798	35.794	370.989	347.748	745.781	365.732	337.176	661.746	227.879	397.101	750.287	224.527	384.442	662.753	233.857	360.125	501.714	264.222	353.798	378.083	264.398	354.203	302.663	149.701	363.998	301.104	211.705	349.970	94.997	149.590	283.985	42.513	324.144	386.794	35.269	216.353	168.340	500.299	236.061	211.240	501.913	246.821	129.594	116.347	242.116	256.483	109.949	230.256	55.877	1092.264	237.272	327.209	1099.916	175.706	149.356	1006.219	182.580	250.833	1003.662	273.716	88.577	871.377	283.400	298.112	866.838
71	0.70000	265.905	5.907	1423.169	329.506	165.454	1412.468	288.393	-7.763	1247.152	213.513	-50.577	1110.886	310.977	-43.699	993.955	314.884	-82.145	889.959	215.874	392.673	1429.332	333.204	230.503	1414.880	125.536	251.603	1313.360	259.855	398.388	1259.911	181.648	427.549	1121.820	264.379	440.554	1008.869	253.879	466.441	890.047	354.722	49.339	958.888	261.186	33.752	1045.431	174.427	201.472	991.202	280.240	357.182	1038.040	371.878	326.723	952.245	367.459	71.332	718.259	352.806	80.706	632.727	240.241	-12.979	640.796	221.290	18.387	496.710	275.942	48.970	360.902	268.257	51.954	287.101	175.070	-6.097	366.838	166.152	-1.595	292.908	209.167	34.382	100.077	144.881	95.344	54.492	333.153	4.798	35.794	370.883	347.576	745.798	365.732	337.176	661.746	227.944	397.206	750.299	224.411	384.680	662.720	233.857	360.125	501.714	264.279	353.791	378.129	264.290	354.266	302.686	149.738	364.118	301.123	211.683	349.876	94.906	149.590	283.985	42.513	324.144	386.794	35.269	216.234	168.167	500.310	235.954	211.162	501.790	246.821	129.594	116.347	242.116	256.483	109.949	230.206	55.964	1092.332	237.272	327.209	1099.916	175.706	149.356	1006.219	182.538	250.805	1003.532	273.693	88.666	871.380	283.361	298.201	866.835
72	0.71000	265.949	5.901	1423.060	329.556	165.655	1412.332	288.553	-7.768	1247.239	213.379	-50.484	1110.938	310.722	-43.592	993.852	314.970	-82.080	890.073	215.753	392.704	1429.308	333.073	230.543	1414.859	125.878	251.705	1313.405	259.906	398.417	1259.818	181.301	427.708	1121.655	264.156	440.785	1008.828	253.410	466.477	890.065	354.722	49.339	958.888	261.186	33.752	1045.431	174.427	201.472	991.202	280.240	357.182	1038.040	371.878	326.723	952.245	367.459	71.332	718.259	352.806	80.706	632.727	240.432	-12.961	640.724	221.290	18.387	496.710	275.811	49.115	360.941	268.257	51.954	287.101	175.070	-6.097	366.838	166.152	-1.595	292.908	209.167	34.382	100.077	144.864	95.442	54.226	333.067	4.865	35.848	370.446	347.768	745.762	365.732	337.176	661.746	227.972	397.320	750.261	224.686	384.561	662.591	233.805	360.094	501.541	264.097	353.764	378.053	264.218	354.256	302.593	149.661	364.115	301.034	211.549	349.878	95.117	149.516	283.980	42.391	324.248	386.823	35.383	216.353	168.340	500.299	236.061	211.240	501.913	246.821	129.594	116.347	242.116	256.483	109.949	230.206	55.964	1092.332	237.272	327.209	1099.916	175.253	149.481	1006.375	182.538	250.805	1003.532	273.579	88.673	871.404	283.293	298.206	866.846
73	0.72000	265.823	6.031	1423.153	329.390	165.572	1412.322	288.627	-7.498	1247.215	213.513	-50.577	1110.886	310.977	-43.699	993.955	314.857	-81.951	889.977	215.408	392.584	1429.116	333.073	230.543	1414.859	125.538	251.536	1313.484	259.120	398.696	1259.805	181.070	427.671	1121.676	263.533	440.902	1008.758	253.402	466.569	889.990	354.722	49.339	958.888	260.844	33.938	1045.456	174.427	201.472	991.202	280.329	357.324	1038.150	371.878	326.723	952.245	367.442	71.395	718.160	352.806	80.706	632.727	240.346	-12.916	640.731	221.290	18.387	496.710	275.647	49.184	360.682	268.257	51.954	287.101	175.070	-6.097	366.838	166.082	-1.536	292.979	209.167	34.382	100.077	144.800	95.370	54.331	332.836	4.862	35.595	370.440	348.002	745.798	365.732	337.176	661.746	227.972	397.320	750.261	224.367	384.702	662.659	234.052	359.981	501.484	264.013	353.823	378.025	264.244	354.176	302.589	149.885	364.029	301.030	211.601	350.187	94.964	149.516	283.980	42.391	324.144	386.794	35.269	216.241	168.508	500.391	235.954	211.162	501.790	246.853	129.635	116.272	242.488	256.529	109.826	230.206	55.964	1092.332	236.619	327.163	1099.781	175.253	149.481	1006.375	182.538	250.805	1003.532	273.529	88.716	871.425	283.343	298.244	866.876
74	0.73000	265.855	5.846	1423.154	329.517	165.658	1412.204	288.545	-7.570	1247.079	213.561	-50.490	1110.927	310.977	-43.699	993.955	314.803	-81.846	890.032	215.408	392.584	1429.116	333.058	230.828	1414.961	125.536	251.603	1313.360	258.946	398.874	1259.829	180.873	427.497	1121.415	263.260	440.935	1008.767	253.207	466.608	889.957	354.722	49.339	958.888	260.551	34.138	1045.391	174.427	201.472	991.202	280.329	357.324	1038.150	371.878	326.723	952.245	367.227	71.212	718.124	352.806	80.706	632.727	240.190	-12.893	640.690	221.265	18.588	496.654	275.714	49.111	360.760	268.257	51.954	287.101	175.070	-6.097	366.838	166.082	-1.536	292.979	209.027	34.290	100.030	144.881	95.344	54.492	333.035	4.714	35.725	370.428	347.895	745.669	365.732	337.176	661.746	227.972	397.320	750.261	224.290	384.819	662.696	233.925	360.050	501.421	264.013	353.823	378.025	264.237	354.235	302.475	149.844	364.142	300.922	211.499	349.985	94.858	149.521	283.934	42.412	324.144	386.794	35.269	216.241	168.508	500.391	235.954	211.162	501.790	246.853	129.635	116.272	242.116	256.483	109.949	230.206	55.964	1092.332	236.619	327.163	1099.781	175.560	149.314	1006.200	182.538	250.805	1003.532	273.580	88.731	871.389	283.425	298.258	866.864
